<mxfile host="app.diagrams.net" agent="Mozilla/5.0 (Windows NT 10.0; Win64; x64; rv:132.0) Gecko/20100101 Firefox/132.0" version="24.8.6">
  <diagram id="prtHgNgQTEPvFCAcTncT" name="Page-1">
    <mxGraphModel dx="2049" dy="2165" grid="1" gridSize="10" guides="1" tooltips="1" connect="1" arrows="1" fold="1" page="1" pageScale="1" pageWidth="827" pageHeight="1169" math="0" shadow="0">
      <root>
        <mxCell id="0" />
        <mxCell id="1" parent="0" />
        <mxCell id="dNxyNK7c78bLwvsdeMH5-19" value="" style="swimlane;html=1;childLayout=stackLayout;resizeParent=1;resizeParentMax=0;horizontal=0;startSize=20;horizontalStack=0;" parent="1" vertex="1">
          <mxGeometry x="120" y="120" width="2290" height="380" as="geometry" />
        </mxCell>
        <mxCell id="dNxyNK7c78bLwvsdeMH5-20" value="WareHouse" style="swimlane;html=1;startSize=20;horizontal=0;" parent="dNxyNK7c78bLwvsdeMH5-19" vertex="1">
          <mxGeometry x="20" width="2270" height="120" as="geometry" />
        </mxCell>
        <mxCell id="dNxyNK7c78bLwvsdeMH5-25" value="" style="edgeStyle=orthogonalEdgeStyle;rounded=0;orthogonalLoop=1;jettySize=auto;html=1;" parent="dNxyNK7c78bLwvsdeMH5-20" source="dNxyNK7c78bLwvsdeMH5-23" target="dNxyNK7c78bLwvsdeMH5-24" edge="1">
          <mxGeometry relative="1" as="geometry" />
        </mxCell>
        <mxCell id="dNxyNK7c78bLwvsdeMH5-23" value="" style="ellipse;whiteSpace=wrap;html=1;" parent="dNxyNK7c78bLwvsdeMH5-20" vertex="1">
          <mxGeometry x="40" y="40" width="40" height="40" as="geometry" />
        </mxCell>
        <mxCell id="GPdUt59Fllx6KTMSL-Bm-16" style="edgeStyle=orthogonalEdgeStyle;rounded=0;orthogonalLoop=1;jettySize=auto;html=1;" edge="1" parent="dNxyNK7c78bLwvsdeMH5-20" source="dNxyNK7c78bLwvsdeMH5-24">
          <mxGeometry relative="1" as="geometry">
            <mxPoint x="160" y="150" as="targetPoint" />
          </mxGeometry>
        </mxCell>
        <mxCell id="dNxyNK7c78bLwvsdeMH5-24" value="1.Generate Pushase Requisition" style="rounded=0;whiteSpace=wrap;html=1;fontFamily=Helvetica;fontSize=12;fontColor=#000000;align=center;" parent="dNxyNK7c78bLwvsdeMH5-20" vertex="1">
          <mxGeometry x="120" y="30" width="80" height="60" as="geometry" />
        </mxCell>
        <mxCell id="GPdUt59Fllx6KTMSL-Bm-47" style="edgeStyle=orthogonalEdgeStyle;rounded=0;orthogonalLoop=1;jettySize=auto;html=1;" edge="1" parent="dNxyNK7c78bLwvsdeMH5-20" source="GPdUt59Fllx6KTMSL-Bm-37">
          <mxGeometry relative="1" as="geometry">
            <mxPoint x="1080" y="60" as="targetPoint" />
          </mxGeometry>
        </mxCell>
        <mxCell id="GPdUt59Fllx6KTMSL-Bm-37" value="9.Scan PO to Goods" style="rounded=0;whiteSpace=wrap;html=1;fontFamily=Helvetica;fontSize=12;fontColor=#000000;align=center;" vertex="1" parent="dNxyNK7c78bLwvsdeMH5-20">
          <mxGeometry x="650" y="30" width="80" height="60" as="geometry" />
        </mxCell>
        <mxCell id="GPdUt59Fllx6KTMSL-Bm-49" style="edgeStyle=orthogonalEdgeStyle;rounded=0;orthogonalLoop=1;jettySize=auto;html=1;" edge="1" parent="dNxyNK7c78bLwvsdeMH5-20" source="GPdUt59Fllx6KTMSL-Bm-48">
          <mxGeometry relative="1" as="geometry">
            <mxPoint x="1350" y="60" as="targetPoint" />
          </mxGeometry>
        </mxCell>
        <mxCell id="GPdUt59Fllx6KTMSL-Bm-48" value="21. Mark receiving complete" style="rounded=0;whiteSpace=wrap;html=1;fontFamily=Helvetica;fontSize=12;fontColor=#000000;align=center;" vertex="1" parent="dNxyNK7c78bLwvsdeMH5-20">
          <mxGeometry x="1080" y="30" width="80" height="60" as="geometry" />
        </mxCell>
        <mxCell id="GPdUt59Fllx6KTMSL-Bm-78" style="edgeStyle=orthogonalEdgeStyle;rounded=0;orthogonalLoop=1;jettySize=auto;html=1;" edge="1" parent="dNxyNK7c78bLwvsdeMH5-20" source="GPdUt59Fllx6KTMSL-Bm-50">
          <mxGeometry relative="1" as="geometry">
            <mxPoint x="2100" y="60" as="targetPoint" />
          </mxGeometry>
        </mxCell>
        <mxCell id="GPdUt59Fllx6KTMSL-Bm-50" value="22. Update item counts" style="rounded=0;whiteSpace=wrap;html=1;fontFamily=Helvetica;fontSize=12;fontColor=#000000;align=center;" vertex="1" parent="dNxyNK7c78bLwvsdeMH5-20">
          <mxGeometry x="1350" y="30" width="80" height="60" as="geometry" />
        </mxCell>
        <mxCell id="dNxyNK7c78bLwvsdeMH5-21" value="Purshasing" style="swimlane;html=1;startSize=20;horizontal=0;" parent="dNxyNK7c78bLwvsdeMH5-19" vertex="1">
          <mxGeometry x="20" y="120" width="2270" height="120" as="geometry" />
        </mxCell>
        <mxCell id="GPdUt59Fllx6KTMSL-Bm-22" value="" style="edgeStyle=orthogonalEdgeStyle;rounded=0;orthogonalLoop=1;jettySize=auto;html=1;" edge="1" parent="dNxyNK7c78bLwvsdeMH5-21" source="GPdUt59Fllx6KTMSL-Bm-18" target="GPdUt59Fllx6KTMSL-Bm-21">
          <mxGeometry relative="1" as="geometry" />
        </mxCell>
        <mxCell id="GPdUt59Fllx6KTMSL-Bm-23" value="Yes" style="edgeLabel;html=1;align=center;verticalAlign=middle;resizable=0;points=[];" vertex="1" connectable="0" parent="GPdUt59Fllx6KTMSL-Bm-22">
          <mxGeometry x="-0.4667" y="2" relative="1" as="geometry">
            <mxPoint as="offset" />
          </mxGeometry>
        </mxCell>
        <mxCell id="GPdUt59Fllx6KTMSL-Bm-18" value="2.Approve Purchase Requisition" style="rounded=0;whiteSpace=wrap;html=1;fontFamily=Helvetica;fontSize=12;fontColor=#000000;align=center;" vertex="1" parent="dNxyNK7c78bLwvsdeMH5-21">
          <mxGeometry x="120" y="30" width="80" height="60" as="geometry" />
        </mxCell>
        <mxCell id="GPdUt59Fllx6KTMSL-Bm-24" style="edgeStyle=orthogonalEdgeStyle;rounded=0;orthogonalLoop=1;jettySize=auto;html=1;" edge="1" parent="dNxyNK7c78bLwvsdeMH5-21" source="GPdUt59Fllx6KTMSL-Bm-21">
          <mxGeometry relative="1" as="geometry">
            <mxPoint x="305" y="160" as="targetPoint" />
          </mxGeometry>
        </mxCell>
        <mxCell id="GPdUt59Fllx6KTMSL-Bm-21" value="3.Create purshase Order" style="whiteSpace=wrap;html=1;fontColor=#000000;rounded=0;" vertex="1" parent="dNxyNK7c78bLwvsdeMH5-21">
          <mxGeometry x="260" y="30" width="90" height="60" as="geometry" />
        </mxCell>
        <mxCell id="dNxyNK7c78bLwvsdeMH5-22" value="Finacial System" style="swimlane;html=1;startSize=20;horizontal=0;" parent="dNxyNK7c78bLwvsdeMH5-19" vertex="1">
          <mxGeometry x="20" y="240" width="2270" height="140" as="geometry" />
        </mxCell>
        <mxCell id="GPdUt59Fllx6KTMSL-Bm-28" style="edgeStyle=orthogonalEdgeStyle;rounded=0;orthogonalLoop=1;jettySize=auto;html=1;" edge="1" parent="dNxyNK7c78bLwvsdeMH5-22" source="GPdUt59Fllx6KTMSL-Bm-25">
          <mxGeometry relative="1" as="geometry">
            <mxPoint x="430" y="70" as="targetPoint" />
          </mxGeometry>
        </mxCell>
        <mxCell id="GPdUt59Fllx6KTMSL-Bm-25" value="4A. Record PO" style="whiteSpace=wrap;html=1;fontColor=#000000;rounded=0;" vertex="1" parent="dNxyNK7c78bLwvsdeMH5-22">
          <mxGeometry x="260" y="40" width="90" height="60" as="geometry" />
        </mxCell>
        <mxCell id="GPdUt59Fllx6KTMSL-Bm-31" style="edgeStyle=orthogonalEdgeStyle;rounded=0;orthogonalLoop=1;jettySize=auto;html=1;entryX=0;entryY=0.5;entryDx=0;entryDy=0;" edge="1" parent="dNxyNK7c78bLwvsdeMH5-22" source="GPdUt59Fllx6KTMSL-Bm-29" target="GPdUt59Fllx6KTMSL-Bm-30">
          <mxGeometry relative="1" as="geometry" />
        </mxCell>
        <mxCell id="GPdUt59Fllx6KTMSL-Bm-29" value="5.Generate Accruals" style="rounded=0;whiteSpace=wrap;html=1;fontFamily=Helvetica;fontSize=12;fontColor=#000000;align=center;" vertex="1" parent="dNxyNK7c78bLwvsdeMH5-22">
          <mxGeometry x="430" y="40" width="80" height="60" as="geometry" />
        </mxCell>
        <mxCell id="GPdUt59Fllx6KTMSL-Bm-30" value="6. Post to Finacial Systems" style="rounded=0;whiteSpace=wrap;html=1;fontFamily=Helvetica;fontSize=12;fontColor=#000000;align=center;" vertex="1" parent="dNxyNK7c78bLwvsdeMH5-22">
          <mxGeometry x="570" y="40" width="80" height="60" as="geometry" />
        </mxCell>
        <mxCell id="GPdUt59Fllx6KTMSL-Bm-61" style="edgeStyle=orthogonalEdgeStyle;rounded=0;orthogonalLoop=1;jettySize=auto;html=1;" edge="1" parent="dNxyNK7c78bLwvsdeMH5-22" source="GPdUt59Fllx6KTMSL-Bm-58">
          <mxGeometry relative="1" as="geometry">
            <mxPoint x="1540" y="70" as="targetPoint" />
          </mxGeometry>
        </mxCell>
        <mxCell id="GPdUt59Fllx6KTMSL-Bm-58" value="14.Authorize Payment" style="rounded=0;whiteSpace=wrap;html=1;fontFamily=Helvetica;fontSize=12;fontColor=#000000;align=center;" vertex="1" parent="dNxyNK7c78bLwvsdeMH5-22">
          <mxGeometry x="1220" y="40" width="80" height="60" as="geometry" />
        </mxCell>
        <mxCell id="GPdUt59Fllx6KTMSL-Bm-59" style="edgeStyle=orthogonalEdgeStyle;rounded=0;orthogonalLoop=1;jettySize=auto;html=1;entryX=1;entryY=0.5;entryDx=0;entryDy=0;exitX=0.5;exitY=0;exitDx=0;exitDy=0;" edge="1" parent="dNxyNK7c78bLwvsdeMH5-22" source="GPdUt59Fllx6KTMSL-Bm-56">
          <mxGeometry relative="1" as="geometry">
            <mxPoint x="1440.0000000000005" y="319.9999999999998" as="sourcePoint" />
            <mxPoint x="1300" y="90" as="targetPoint" />
            <Array as="points">
              <mxPoint x="1440" y="90" />
            </Array>
          </mxGeometry>
        </mxCell>
        <mxCell id="GPdUt59Fllx6KTMSL-Bm-60" value="Futre receipts of good" style="edgeLabel;html=1;align=center;verticalAlign=middle;resizable=0;points=[];" vertex="1" connectable="0" parent="GPdUt59Fllx6KTMSL-Bm-59">
          <mxGeometry x="0.0672" y="-4" relative="1" as="geometry">
            <mxPoint as="offset" />
          </mxGeometry>
        </mxCell>
        <mxCell id="GPdUt59Fllx6KTMSL-Bm-63" style="edgeStyle=orthogonalEdgeStyle;rounded=0;orthogonalLoop=1;jettySize=auto;html=1;" edge="1" parent="dNxyNK7c78bLwvsdeMH5-22" source="GPdUt59Fllx6KTMSL-Bm-62">
          <mxGeometry relative="1" as="geometry">
            <mxPoint x="1580" y="419.9999999999998" as="targetPoint" />
          </mxGeometry>
        </mxCell>
        <mxCell id="GPdUt59Fllx6KTMSL-Bm-84" value="Facilitate payment" style="edgeLabel;html=1;align=center;verticalAlign=middle;resizable=0;points=[];" vertex="1" connectable="0" parent="GPdUt59Fllx6KTMSL-Bm-63">
          <mxGeometry x="-0.3" y="4" relative="1" as="geometry">
            <mxPoint y="-1" as="offset" />
          </mxGeometry>
        </mxCell>
        <mxCell id="GPdUt59Fllx6KTMSL-Bm-71" style="edgeStyle=orthogonalEdgeStyle;rounded=0;orthogonalLoop=1;jettySize=auto;html=1;" edge="1" parent="dNxyNK7c78bLwvsdeMH5-22" source="GPdUt59Fllx6KTMSL-Bm-62">
          <mxGeometry relative="1" as="geometry">
            <mxPoint x="2010" y="70" as="targetPoint" />
          </mxGeometry>
        </mxCell>
        <mxCell id="GPdUt59Fllx6KTMSL-Bm-77" value="If not completed" style="edgeLabel;html=1;align=center;verticalAlign=middle;resizable=0;points=[];" vertex="1" connectable="0" parent="GPdUt59Fllx6KTMSL-Bm-71">
          <mxGeometry x="0.5291" y="1" relative="1" as="geometry">
            <mxPoint as="offset" />
          </mxGeometry>
        </mxCell>
        <mxCell id="GPdUt59Fllx6KTMSL-Bm-62" value="15. Generate Payment File" style="rounded=0;whiteSpace=wrap;html=1;fontFamily=Helvetica;fontSize=12;fontColor=#000000;align=center;" vertex="1" parent="dNxyNK7c78bLwvsdeMH5-22">
          <mxGeometry x="1540" y="40" width="80" height="60" as="geometry" />
        </mxCell>
        <mxCell id="GPdUt59Fllx6KTMSL-Bm-72" value="19.Reserve Accruals" style="rounded=0;whiteSpace=wrap;html=1;fontFamily=Helvetica;fontSize=12;fontColor=#000000;align=center;" vertex="1" parent="dNxyNK7c78bLwvsdeMH5-22">
          <mxGeometry x="2010" y="40" width="80" height="60" as="geometry" />
        </mxCell>
        <mxCell id="GPdUt59Fllx6KTMSL-Bm-75" value="" style="endArrow=classic;html=1;rounded=0;entryX=0;entryY=0.5;entryDx=0;entryDy=0;" edge="1" parent="dNxyNK7c78bLwvsdeMH5-22" target="GPdUt59Fllx6KTMSL-Bm-70">
          <mxGeometry width="50" height="50" relative="1" as="geometry">
            <mxPoint x="1850" y="70" as="sourcePoint" />
            <mxPoint x="2030" y="314.9999999999998" as="targetPoint" />
            <Array as="points">
              <mxPoint x="1850" y="315" />
            </Array>
          </mxGeometry>
        </mxCell>
        <mxCell id="GPdUt59Fllx6KTMSL-Bm-76" value="If completed" style="edgeLabel;html=1;align=center;verticalAlign=middle;resizable=0;points=[];" vertex="1" connectable="0" parent="GPdUt59Fllx6KTMSL-Bm-75">
          <mxGeometry x="-0.2956" y="-1" relative="1" as="geometry">
            <mxPoint as="offset" />
          </mxGeometry>
        </mxCell>
        <mxCell id="GPdUt59Fllx6KTMSL-Bm-19" style="edgeStyle=orthogonalEdgeStyle;rounded=0;orthogonalLoop=1;jettySize=auto;html=1;entryX=0.5;entryY=1;entryDx=0;entryDy=0;" edge="1" parent="dNxyNK7c78bLwvsdeMH5-19" source="GPdUt59Fllx6KTMSL-Bm-18" target="dNxyNK7c78bLwvsdeMH5-23">
          <mxGeometry relative="1" as="geometry" />
        </mxCell>
        <mxCell id="GPdUt59Fllx6KTMSL-Bm-20" value="No" style="edgeLabel;html=1;align=center;verticalAlign=middle;resizable=0;points=[];" vertex="1" connectable="0" parent="GPdUt59Fllx6KTMSL-Bm-19">
          <mxGeometry x="0.025" y="-4" relative="1" as="geometry">
            <mxPoint as="offset" />
          </mxGeometry>
        </mxCell>
        <mxCell id="GPdUt59Fllx6KTMSL-Bm-1" value="Bank" style="swimlane;html=1;startSize=20;horizontal=0;" vertex="1" parent="1">
          <mxGeometry x="140" y="730" width="2270" height="150" as="geometry" />
        </mxCell>
        <mxCell id="GPdUt59Fllx6KTMSL-Bm-65" style="edgeStyle=orthogonalEdgeStyle;rounded=0;orthogonalLoop=1;jettySize=auto;html=1;" edge="1" parent="GPdUt59Fllx6KTMSL-Bm-1" source="GPdUt59Fllx6KTMSL-Bm-64">
          <mxGeometry relative="1" as="geometry">
            <mxPoint x="1730" y="79.99999999999977" as="targetPoint" />
          </mxGeometry>
        </mxCell>
        <mxCell id="GPdUt59Fllx6KTMSL-Bm-64" value="16. Process EFT" style="whiteSpace=wrap;html=1;fontColor=#000000;rounded=0;" vertex="1" parent="GPdUt59Fllx6KTMSL-Bm-1">
          <mxGeometry x="1540" y="50" width="80" height="60" as="geometry" />
        </mxCell>
        <mxCell id="GPdUt59Fllx6KTMSL-Bm-67" style="edgeStyle=orthogonalEdgeStyle;rounded=0;orthogonalLoop=1;jettySize=auto;html=1;" edge="1" parent="GPdUt59Fllx6KTMSL-Bm-1" source="GPdUt59Fllx6KTMSL-Bm-66">
          <mxGeometry relative="1" as="geometry">
            <mxPoint x="1770" y="-150.00000000000023" as="targetPoint" />
          </mxGeometry>
        </mxCell>
        <mxCell id="GPdUt59Fllx6KTMSL-Bm-66" value="17.Transfert Funds" style="whiteSpace=wrap;html=1;fontColor=#000000;rounded=0;" vertex="1" parent="GPdUt59Fllx6KTMSL-Bm-1">
          <mxGeometry x="1730" y="50" width="80" height="60" as="geometry" />
        </mxCell>
        <mxCell id="GPdUt59Fllx6KTMSL-Bm-5" value="Supplier" style="swimlane;html=1;startSize=20;horizontal=0;" vertex="1" parent="1">
          <mxGeometry x="140" y="500" width="2270" height="120" as="geometry" />
        </mxCell>
        <mxCell id="GPdUt59Fllx6KTMSL-Bm-34" style="edgeStyle=orthogonalEdgeStyle;rounded=0;orthogonalLoop=1;jettySize=auto;html=1;" edge="1" parent="GPdUt59Fllx6KTMSL-Bm-5" source="GPdUt59Fllx6KTMSL-Bm-33">
          <mxGeometry relative="1" as="geometry">
            <mxPoint x="642.3809523809524" y="55" as="targetPoint" />
          </mxGeometry>
        </mxCell>
        <mxCell id="GPdUt59Fllx6KTMSL-Bm-54" value="Accept" style="edgeLabel;html=1;align=center;verticalAlign=middle;resizable=0;points=[];" vertex="1" connectable="0" parent="GPdUt59Fllx6KTMSL-Bm-34">
          <mxGeometry x="0.0345" y="3" relative="1" as="geometry">
            <mxPoint as="offset" />
          </mxGeometry>
        </mxCell>
        <mxCell id="GPdUt59Fllx6KTMSL-Bm-33" value="4B. Receive PO" style="whiteSpace=wrap;html=1;fontColor=#000000;rounded=0;" vertex="1" parent="GPdUt59Fllx6KTMSL-Bm-5">
          <mxGeometry x="260" y="25" width="90" height="60" as="geometry" />
        </mxCell>
        <mxCell id="GPdUt59Fllx6KTMSL-Bm-32" value="" style="endArrow=classic;html=1;rounded=0;entryX=-0.012;entryY=0.558;entryDx=0;entryDy=0;entryPerimeter=0;" edge="1" parent="GPdUt59Fllx6KTMSL-Bm-5" target="GPdUt59Fllx6KTMSL-Bm-33">
          <mxGeometry width="50" height="50" relative="1" as="geometry">
            <mxPoint x="300" y="-120" as="sourcePoint" />
            <mxPoint x="240" y="60" as="targetPoint" />
            <Array as="points">
              <mxPoint x="200" y="-120" />
              <mxPoint x="200" y="60" />
            </Array>
          </mxGeometry>
        </mxCell>
        <mxCell id="GPdUt59Fllx6KTMSL-Bm-36" style="edgeStyle=orthogonalEdgeStyle;rounded=0;orthogonalLoop=1;jettySize=auto;html=1;" edge="1" parent="GPdUt59Fllx6KTMSL-Bm-5" source="GPdUt59Fllx6KTMSL-Bm-35">
          <mxGeometry relative="1" as="geometry">
            <mxPoint x="685" y="-290" as="targetPoint" />
          </mxGeometry>
        </mxCell>
        <mxCell id="GPdUt59Fllx6KTMSL-Bm-53" value="Receive Goods" style="edgeLabel;html=1;align=center;verticalAlign=middle;resizable=0;points=[];" vertex="1" connectable="0" parent="GPdUt59Fllx6KTMSL-Bm-36">
          <mxGeometry x="0.3387" relative="1" as="geometry">
            <mxPoint as="offset" />
          </mxGeometry>
        </mxCell>
        <mxCell id="GPdUt59Fllx6KTMSL-Bm-38" style="edgeStyle=orthogonalEdgeStyle;rounded=0;orthogonalLoop=1;jettySize=auto;html=1;" edge="1" parent="GPdUt59Fllx6KTMSL-Bm-5" source="GPdUt59Fllx6KTMSL-Bm-35">
          <mxGeometry relative="1" as="geometry">
            <mxPoint x="770" y="60" as="targetPoint" />
          </mxGeometry>
        </mxCell>
        <mxCell id="GPdUt59Fllx6KTMSL-Bm-35" value="8. Ship Goods" style="whiteSpace=wrap;html=1;fontColor=#000000;rounded=0;" vertex="1" parent="GPdUt59Fllx6KTMSL-Bm-5">
          <mxGeometry x="640" y="30" width="90" height="60" as="geometry" />
        </mxCell>
        <mxCell id="GPdUt59Fllx6KTMSL-Bm-40" style="edgeStyle=orthogonalEdgeStyle;rounded=0;orthogonalLoop=1;jettySize=auto;html=1;" edge="1" parent="GPdUt59Fllx6KTMSL-Bm-5" source="GPdUt59Fllx6KTMSL-Bm-39">
          <mxGeometry relative="1" as="geometry">
            <mxPoint x="900" y="60" as="targetPoint" />
          </mxGeometry>
        </mxCell>
        <mxCell id="GPdUt59Fllx6KTMSL-Bm-39" value="9.Generate Invoice" style="whiteSpace=wrap;html=1;fontColor=#000000;rounded=0;" vertex="1" parent="GPdUt59Fllx6KTMSL-Bm-5">
          <mxGeometry x="770" y="30" width="90" height="60" as="geometry" />
        </mxCell>
        <mxCell id="GPdUt59Fllx6KTMSL-Bm-42" style="edgeStyle=orthogonalEdgeStyle;rounded=0;orthogonalLoop=1;jettySize=auto;html=1;" edge="1" parent="GPdUt59Fllx6KTMSL-Bm-5" source="GPdUt59Fllx6KTMSL-Bm-41">
          <mxGeometry relative="1" as="geometry">
            <mxPoint x="945" y="159.99999999999977" as="targetPoint" />
          </mxGeometry>
        </mxCell>
        <mxCell id="GPdUt59Fllx6KTMSL-Bm-41" value="10. Send Invoice" style="whiteSpace=wrap;html=1;fontColor=#000000;rounded=0;" vertex="1" parent="GPdUt59Fllx6KTMSL-Bm-5">
          <mxGeometry x="900" y="30" width="90" height="60" as="geometry" />
        </mxCell>
        <mxCell id="GPdUt59Fllx6KTMSL-Bm-81" style="edgeStyle=orthogonalEdgeStyle;rounded=0;orthogonalLoop=1;jettySize=auto;html=1;" edge="1" parent="GPdUt59Fllx6KTMSL-Bm-5" source="GPdUt59Fllx6KTMSL-Bm-68">
          <mxGeometry relative="1" as="geometry">
            <mxPoint x="2090" y="55.00000000000023" as="targetPoint" />
          </mxGeometry>
        </mxCell>
        <mxCell id="GPdUt59Fllx6KTMSL-Bm-68" value="18. Receive funds" style="whiteSpace=wrap;html=1;fontColor=#000000;rounded=0;" vertex="1" parent="GPdUt59Fllx6KTMSL-Bm-5">
          <mxGeometry x="1730" y="25" width="90" height="60" as="geometry" />
        </mxCell>
        <mxCell id="GPdUt59Fllx6KTMSL-Bm-79" value="Payment Received" style="ellipse;whiteSpace=wrap;html=1;aspect=fixed;" vertex="1" parent="GPdUt59Fllx6KTMSL-Bm-5">
          <mxGeometry x="2090" y="15" width="80" height="80" as="geometry" />
        </mxCell>
        <mxCell id="GPdUt59Fllx6KTMSL-Bm-9" value="Account Payable" style="swimlane;html=1;startSize=20;horizontal=0;" vertex="1" parent="1">
          <mxGeometry x="140" y="620" width="2270" height="110" as="geometry" />
        </mxCell>
        <mxCell id="GPdUt59Fllx6KTMSL-Bm-44" style="edgeStyle=orthogonalEdgeStyle;rounded=0;orthogonalLoop=1;jettySize=auto;html=1;entryX=0;entryY=0.5;entryDx=0;entryDy=0;" edge="1" parent="GPdUt59Fllx6KTMSL-Bm-9" source="GPdUt59Fllx6KTMSL-Bm-43" target="GPdUt59Fllx6KTMSL-Bm-45">
          <mxGeometry relative="1" as="geometry">
            <mxPoint x="1100" y="69.99999999999977" as="targetPoint" />
          </mxGeometry>
        </mxCell>
        <mxCell id="GPdUt59Fllx6KTMSL-Bm-43" value="11. Receive Invoice" style="whiteSpace=wrap;html=1;fontColor=#000000;rounded=0;" vertex="1" parent="GPdUt59Fllx6KTMSL-Bm-9">
          <mxGeometry x="900" y="40" width="80" height="60" as="geometry" />
        </mxCell>
        <mxCell id="GPdUt59Fllx6KTMSL-Bm-55" style="edgeStyle=orthogonalEdgeStyle;rounded=0;orthogonalLoop=1;jettySize=auto;html=1;entryX=0;entryY=0.5;entryDx=0;entryDy=0;" edge="1" parent="GPdUt59Fllx6KTMSL-Bm-9" source="GPdUt59Fllx6KTMSL-Bm-45" target="GPdUt59Fllx6KTMSL-Bm-56">
          <mxGeometry relative="1" as="geometry">
            <mxPoint x="1260" y="69.99999999999977" as="targetPoint" />
          </mxGeometry>
        </mxCell>
        <mxCell id="GPdUt59Fllx6KTMSL-Bm-45" value="12 Match Invoice to PO" style="whiteSpace=wrap;html=1;fontColor=#000000;rounded=0;" vertex="1" parent="GPdUt59Fllx6KTMSL-Bm-9">
          <mxGeometry x="1140" y="40" width="80" height="60" as="geometry" />
        </mxCell>
        <mxCell id="GPdUt59Fllx6KTMSL-Bm-46" style="edgeStyle=orthogonalEdgeStyle;rounded=0;orthogonalLoop=1;jettySize=auto;html=1;entryX=0;entryY=0;entryDx=0;entryDy=0;" edge="1" parent="GPdUt59Fllx6KTMSL-Bm-9" target="GPdUt59Fllx6KTMSL-Bm-45">
          <mxGeometry relative="1" as="geometry">
            <mxPoint x="651" y="-189.99999999999977" as="sourcePoint" />
            <mxPoint x="1101" y="40" as="targetPoint" />
            <Array as="points">
              <mxPoint x="1000" y="-189" />
              <mxPoint x="1000" y="40" />
            </Array>
          </mxGeometry>
        </mxCell>
        <mxCell id="GPdUt59Fllx6KTMSL-Bm-69" style="edgeStyle=orthogonalEdgeStyle;rounded=0;orthogonalLoop=1;jettySize=auto;html=1;entryX=0.12;entryY=0.72;entryDx=0;entryDy=0;entryPerimeter=0;" edge="1" parent="GPdUt59Fllx6KTMSL-Bm-9" source="GPdUt59Fllx6KTMSL-Bm-56" target="GPdUt59Fllx6KTMSL-Bm-70">
          <mxGeometry relative="1" as="geometry">
            <mxPoint x="2090" y="69.99999999999977" as="targetPoint" />
          </mxGeometry>
        </mxCell>
        <mxCell id="GPdUt59Fllx6KTMSL-Bm-85" value="If cannot be complete" style="edgeLabel;html=1;align=center;verticalAlign=middle;resizable=0;points=[];" vertex="1" connectable="0" parent="GPdUt59Fllx6KTMSL-Bm-69">
          <mxGeometry x="-0.4861" y="-5" relative="1" as="geometry">
            <mxPoint as="offset" />
          </mxGeometry>
        </mxCell>
        <mxCell id="GPdUt59Fllx6KTMSL-Bm-56" value="13. Keep PO open" style="whiteSpace=wrap;html=1;fontColor=#000000;rounded=0;" vertex="1" parent="GPdUt59Fllx6KTMSL-Bm-9">
          <mxGeometry x="1400" y="40" width="80" height="60" as="geometry" />
        </mxCell>
        <mxCell id="GPdUt59Fllx6KTMSL-Bm-70" value="Close PO" style="ellipse;whiteSpace=wrap;html=1;aspect=fixed;" vertex="1" parent="GPdUt59Fllx6KTMSL-Bm-9">
          <mxGeometry x="2100" y="15" width="80" height="80" as="geometry" />
        </mxCell>
        <mxCell id="GPdUt59Fllx6KTMSL-Bm-51" style="edgeStyle=orthogonalEdgeStyle;rounded=0;orthogonalLoop=1;jettySize=auto;html=1;entryX=0.25;entryY=0;entryDx=0;entryDy=0;" edge="1" parent="1" source="GPdUt59Fllx6KTMSL-Bm-48" target="GPdUt59Fllx6KTMSL-Bm-45">
          <mxGeometry relative="1" as="geometry" />
        </mxCell>
        <mxCell id="GPdUt59Fllx6KTMSL-Bm-52" value="Validate Goods" style="edgeLabel;html=1;align=center;verticalAlign=middle;resizable=0;points=[];" vertex="1" connectable="0" parent="GPdUt59Fllx6KTMSL-Bm-51">
          <mxGeometry x="-0.1695" y="5" relative="1" as="geometry">
            <mxPoint as="offset" />
          </mxGeometry>
        </mxCell>
        <mxCell id="GPdUt59Fllx6KTMSL-Bm-57" style="edgeStyle=orthogonalEdgeStyle;rounded=0;orthogonalLoop=1;jettySize=auto;html=1;entryX=0;entryY=0.5;entryDx=0;entryDy=0;" edge="1" parent="1" source="GPdUt59Fllx6KTMSL-Bm-45" target="GPdUt59Fllx6KTMSL-Bm-58">
          <mxGeometry relative="1" as="geometry">
            <mxPoint x="1350" y="440" as="targetPoint" />
          </mxGeometry>
        </mxCell>
        <mxCell id="GPdUt59Fllx6KTMSL-Bm-82" value="New inventory" style="ellipse;whiteSpace=wrap;html=1;aspect=fixed;" vertex="1" parent="1">
          <mxGeometry x="2260" y="150" width="80" height="80" as="geometry" />
        </mxCell>
        <mxCell id="GPdUt59Fllx6KTMSL-Bm-73" style="edgeStyle=orthogonalEdgeStyle;rounded=0;orthogonalLoop=1;jettySize=auto;html=1;entryX=0;entryY=0.313;entryDx=0;entryDy=0;entryPerimeter=0;" edge="1" parent="1" source="GPdUt59Fllx6KTMSL-Bm-72" target="GPdUt59Fllx6KTMSL-Bm-70">
          <mxGeometry relative="1" as="geometry">
            <mxPoint x="2280" y="629.9999999999998" as="targetPoint" />
            <Array as="points">
              <mxPoint x="2190" y="660" />
            </Array>
          </mxGeometry>
        </mxCell>
        <mxCell id="GPdUt59Fllx6KTMSL-Bm-74" value="When completed" style="edgeLabel;html=1;align=center;verticalAlign=middle;resizable=0;points=[];" vertex="1" connectable="0" parent="GPdUt59Fllx6KTMSL-Bm-73">
          <mxGeometry x="0.0245" y="-4" relative="1" as="geometry">
            <mxPoint x="4" y="42" as="offset" />
          </mxGeometry>
        </mxCell>
        <UserObject label="&lt;span data-lucid-type=&quot;application/vnd.lucid.text&quot; data-lucid-content=&quot;{&amp;quot;t&amp;quot;:&amp;quot;NCSP Purchasing and Payables Process Flow Overview\nby Bastien Villegas\nRoles : \nPurchasing: Generates and approves purchase orders (POs).\nSupplier: Receives POs and ships products.\nWarehouse: Scans products, updates item counts.\nAccounts Payable (A/P): Matches invoices to POs, authorizes payments, and manages payment alerts.\nFinancial System: Authorise Paylment, Generate payment file, receive accruals .\nBank: Processes electronic fund transfers (EFT) to suppliers as authorized by A/P.\n\nAssumptions :\nAll transportation costs are associated with each PO.\nAny quantity discrepancies between the PO and received items are adjusted in the system to recalculate the payable amount.\nThe system automatically notifies A/P if future payments are needed.\nA/P has the authority to close POs that will not be fully completed by the supplier.&amp;quot;,&amp;quot;m&amp;quot;:[{&amp;quot;s&amp;quot;:0,&amp;quot;n&amp;quot;:&amp;quot;s&amp;quot;,&amp;quot;v&amp;quot;:53.333333333333336,&amp;quot;e&amp;quot;:51},{&amp;quot;s&amp;quot;:0,&amp;quot;n&amp;quot;:&amp;quot;fc&amp;quot;,&amp;quot;v&amp;quot;:&amp;quot;Bold&amp;quot;,&amp;quot;e&amp;quot;:70},{&amp;quot;s&amp;quot;:0,&amp;quot;n&amp;quot;:&amp;quot;b&amp;quot;,&amp;quot;v&amp;quot;:true,&amp;quot;e&amp;quot;:70},{&amp;quot;s&amp;quot;:0,&amp;quot;n&amp;quot;:&amp;quot;fid&amp;quot;,&amp;quot;v&amp;quot;:5,&amp;quot;e&amp;quot;:70},{&amp;quot;s&amp;quot;:70,&amp;quot;n&amp;quot;:&amp;quot;c&amp;quot;,&amp;quot;v&amp;quot;:&amp;quot;#282c33ff&amp;quot;,&amp;quot;e&amp;quot;:835},{&amp;quot;s&amp;quot;:70,&amp;quot;n&amp;quot;:&amp;quot;fsp&amp;quot;,&amp;quot;v&amp;quot;:&amp;quot;ss_presetShapeStyle1_textStyle&amp;quot;,&amp;quot;e&amp;quot;:835},{&amp;quot;s&amp;quot;:71,&amp;quot;n&amp;quot;:&amp;quot;s&amp;quot;,&amp;quot;v&amp;quot;:26.666666666666668,&amp;quot;e&amp;quot;:835},{&amp;quot;s&amp;quot;:71,&amp;quot;n&amp;quot;:&amp;quot;a&amp;quot;,&amp;quot;v&amp;quot;:&amp;quot;left&amp;quot;},{&amp;quot;s&amp;quot;:80,&amp;quot;n&amp;quot;:&amp;quot;a&amp;quot;,&amp;quot;v&amp;quot;:&amp;quot;left&amp;quot;},{&amp;quot;s&amp;quot;:138,&amp;quot;n&amp;quot;:&amp;quot;a&amp;quot;,&amp;quot;v&amp;quot;:&amp;quot;left&amp;quot;},{&amp;quot;s&amp;quot;:181,&amp;quot;n&amp;quot;:&amp;quot;a&amp;quot;,&amp;quot;v&amp;quot;:&amp;quot;left&amp;quot;},{&amp;quot;s&amp;quot;:229,&amp;quot;n&amp;quot;:&amp;quot;a&amp;quot;,&amp;quot;v&amp;quot;:&amp;quot;left&amp;quot;},{&amp;quot;s&amp;quot;:327,&amp;quot;n&amp;quot;:&amp;quot;a&amp;quot;,&amp;quot;v&amp;quot;:&amp;quot;left&amp;quot;},{&amp;quot;s&amp;quot;:407,&amp;quot;n&amp;quot;:&amp;quot;a&amp;quot;,&amp;quot;v&amp;quot;:&amp;quot;left&amp;quot;},{&amp;quot;s&amp;quot;:490,&amp;quot;n&amp;quot;:&amp;quot;a&amp;quot;,&amp;quot;v&amp;quot;:&amp;quot;left&amp;quot;},{&amp;quot;s&amp;quot;:491,&amp;quot;n&amp;quot;:&amp;quot;a&amp;quot;,&amp;quot;v&amp;quot;:&amp;quot;left&amp;quot;},{&amp;quot;s&amp;quot;:505,&amp;quot;n&amp;quot;:&amp;quot;a&amp;quot;,&amp;quot;v&amp;quot;:&amp;quot;left&amp;quot;},{&amp;quot;s&amp;quot;:559,&amp;quot;n&amp;quot;:&amp;quot;a&amp;quot;,&amp;quot;v&amp;quot;:&amp;quot;left&amp;quot;},{&amp;quot;s&amp;quot;:682,&amp;quot;n&amp;quot;:&amp;quot;a&amp;quot;,&amp;quot;v&amp;quot;:&amp;quot;left&amp;quot;},{&amp;quot;s&amp;quot;:751,&amp;quot;n&amp;quot;:&amp;quot;a&amp;quot;,&amp;quot;v&amp;quot;:&amp;quot;left&amp;quot;},{&amp;quot;s&amp;quot;:51,&amp;quot;n&amp;quot;:&amp;quot;s&amp;quot;,&amp;quot;v&amp;quot;:17.77777777777778,&amp;quot;e&amp;quot;:71}]}&quot;&gt;&lt;span style=&quot;font-weight:bold;font-size:40px;&quot;&gt;NCSP Purchasing and Payables Process Flow Overview&lt;br&gt;&lt;/span&gt;&lt;span style=&quot;font-weight:bold;font-size:13.333333333333336px;&quot;&gt;by Bastien Villegas&lt;/span&gt;&lt;span style=&quot;color:#282c33;font-size:13.333333333333336px;&quot;&gt;&lt;br&gt;&lt;/span&gt;&lt;span style=&quot;color:#282c33;font-size:20px;&quot;&gt;Roles : &lt;br&gt;&lt;/span&gt;&lt;span style=&quot;color:#282c33;font-size:20px;&quot;&gt;Purchasing: Generates and approves purchase orders (POs).&lt;br&gt;&lt;/span&gt;&lt;span style=&quot;color:#282c33;font-size:20px;&quot;&gt;Supplier: Receives POs and ships products.&lt;br&gt;&lt;/span&gt;&lt;span style=&quot;color:#282c33;font-size:20px;&quot;&gt;Warehouse: Scans products, updates item counts.&lt;br&gt;&lt;/span&gt;&lt;span style=&quot;color:#282c33;font-size:20px;&quot;&gt;Accounts Payable (A/P): Matches invoices to POs, authorizes payments, and manages payment alerts.&lt;br&gt;&lt;/span&gt;&lt;span style=&quot;color:#282c33;font-size:20px;&quot;&gt;Financial System: Authorise Paylment, Generate payment file, receive accruals .&lt;br&gt;&lt;/span&gt;&lt;span style=&quot;color:#282c33;font-size:20px;&quot;&gt;Bank: Processes electronic fund transfers (EFT) to suppliers as authorized by A/P.&lt;br&gt;&lt;/span&gt;&lt;span style=&quot;color:#282c33;font-size:20px;&quot;&gt;&lt;br&gt;&lt;/span&gt;&lt;span style=&quot;color:#282c33;font-size:20px;&quot;&gt;Assumptions :&lt;br&gt;&lt;/span&gt;&lt;span style=&quot;color:#282c33;font-size:20px;&quot;&gt;All transportation costs are associated with each PO.&lt;br&gt;&lt;/span&gt;&lt;span style=&quot;color:#282c33;font-size:20px;&quot;&gt;Any quantity discrepancies between the PO and received items are adjusted in the system to recalculate the payable amount.&lt;br&gt;&lt;/span&gt;&lt;span style=&quot;color:#282c33;font-size:20px;&quot;&gt;The system automatically notifies A/P if future payments are needed.&lt;br&gt;&lt;/span&gt;&lt;span style=&quot;color:#282c33;font-size:20px;&quot;&gt;A/P has the authority to close POs that will not be fully completed by the supplier.&lt;/span&gt;&lt;/span&gt;" link="&lt;span data-lucid-type=&quot;application/vnd.lucid.text&quot; data-lucid-content=&quot;{&amp;quot;t&amp;quot;:&amp;quot;NCSP Purchasing and Payables Process Flow Overview\nby Bastien Villegas\nRoles : \nPurchasing: Generates and approves purchase orders (POs).\nSupplier: Receives POs and ships products.\nWarehouse: Scans products, updates item counts.\nAccounts Payable (A/P): Matches invoices to POs, authorizes payments, and manages payment alerts.\nFinancial System: Authorise Paylment, Generate payment file, receive accruals .\nBank: Processes electronic fund transfers (EFT) to suppliers as authorized by A/P.\n\nAssumptions :\nAll transportation costs are associated with each PO.\nAny quantity discrepancies between the PO and received items are adjusted in the system to recalculate the payable amount.\nThe system automatically notifies A/P if future payments are needed.\nA/P has the authority to close POs that will not be fully completed by the supplier.&amp;quot;,&amp;quot;m&amp;quot;:[{&amp;quot;s&amp;quot;:0,&amp;quot;n&amp;quot;:&amp;quot;s&amp;quot;,&amp;quot;v&amp;quot;:53.333333333333336,&amp;quot;e&amp;quot;:51},{&amp;quot;s&amp;quot;:0,&amp;quot;n&amp;quot;:&amp;quot;fc&amp;quot;,&amp;quot;v&amp;quot;:&amp;quot;Bold&amp;quot;,&amp;quot;e&amp;quot;:70},{&amp;quot;s&amp;quot;:0,&amp;quot;n&amp;quot;:&amp;quot;b&amp;quot;,&amp;quot;v&amp;quot;:true,&amp;quot;e&amp;quot;:70},{&amp;quot;s&amp;quot;:0,&amp;quot;n&amp;quot;:&amp;quot;fid&amp;quot;,&amp;quot;v&amp;quot;:5,&amp;quot;e&amp;quot;:70},{&amp;quot;s&amp;quot;:70,&amp;quot;n&amp;quot;:&amp;quot;c&amp;quot;,&amp;quot;v&amp;quot;:&amp;quot;#282c33ff&amp;quot;,&amp;quot;e&amp;quot;:835},{&amp;quot;s&amp;quot;:70,&amp;quot;n&amp;quot;:&amp;quot;fsp&amp;quot;,&amp;quot;v&amp;quot;:&amp;quot;ss_presetShapeStyle1_textStyle&amp;quot;,&amp;quot;e&amp;quot;:835},{&amp;quot;s&amp;quot;:71,&amp;quot;n&amp;quot;:&amp;quot;s&amp;quot;,&amp;quot;v&amp;quot;:26.666666666666668,&amp;quot;e&amp;quot;:835},{&amp;quot;s&amp;quot;:71,&amp;quot;n&amp;quot;:&amp;quot;a&amp;quot;,&amp;quot;v&amp;quot;:&amp;quot;left&amp;quot;},{&amp;quot;s&amp;quot;:80,&amp;quot;n&amp;quot;:&amp;quot;a&amp;quot;,&amp;quot;v&amp;quot;:&amp;quot;left&amp;quot;},{&amp;quot;s&amp;quot;:138,&amp;quot;n&amp;quot;:&amp;quot;a&amp;quot;,&amp;quot;v&amp;quot;:&amp;quot;left&amp;quot;},{&amp;quot;s&amp;quot;:181,&amp;quot;n&amp;quot;:&amp;quot;a&amp;quot;,&amp;quot;v&amp;quot;:&amp;quot;left&amp;quot;},{&amp;quot;s&amp;quot;:229,&amp;quot;n&amp;quot;:&amp;quot;a&amp;quot;,&amp;quot;v&amp;quot;:&amp;quot;left&amp;quot;},{&amp;quot;s&amp;quot;:327,&amp;quot;n&amp;quot;:&amp;quot;a&amp;quot;,&amp;quot;v&amp;quot;:&amp;quot;left&amp;quot;},{&amp;quot;s&amp;quot;:407,&amp;quot;n&amp;quot;:&amp;quot;a&amp;quot;,&amp;quot;v&amp;quot;:&amp;quot;left&amp;quot;},{&amp;quot;s&amp;quot;:490,&amp;quot;n&amp;quot;:&amp;quot;a&amp;quot;,&amp;quot;v&amp;quot;:&amp;quot;left&amp;quot;},{&amp;quot;s&amp;quot;:491,&amp;quot;n&amp;quot;:&amp;quot;a&amp;quot;,&amp;quot;v&amp;quot;:&amp;quot;left&amp;quot;},{&amp;quot;s&amp;quot;:505,&amp;quot;n&amp;quot;:&amp;quot;a&amp;quot;,&amp;quot;v&amp;quot;:&amp;quot;left&amp;quot;},{&amp;quot;s&amp;quot;:559,&amp;quot;n&amp;quot;:&amp;quot;a&amp;quot;,&amp;quot;v&amp;quot;:&amp;quot;left&amp;quot;},{&amp;quot;s&amp;quot;:682,&amp;quot;n&amp;quot;:&amp;quot;a&amp;quot;,&amp;quot;v&amp;quot;:&amp;quot;left&amp;quot;},{&amp;quot;s&amp;quot;:751,&amp;quot;n&amp;quot;:&amp;quot;a&amp;quot;,&amp;quot;v&amp;quot;:&amp;quot;left&amp;quot;},{&amp;quot;s&amp;quot;:51,&amp;quot;n&amp;quot;:&amp;quot;s&amp;quot;,&amp;quot;v&amp;quot;:17.77777777777778,&amp;quot;e&amp;quot;:71}]}&quot;&gt;&lt;span style=&quot;font-weight:bold;font-size:40px;&quot;&gt;NCSP Purchasing and Payables Process Flow Overview&lt;br&gt;&lt;/span&gt;&lt;span style=&quot;font-weight:bold;font-size:13.333333333333336px;&quot;&gt;by Bastien Villegas&lt;/span&gt;&lt;span style=&quot;color:#282c33;font-size:13.333333333333336px;&quot;&gt;&lt;br&gt;&lt;/span&gt;&lt;span style=&quot;color:#282c33;font-size:20px;&quot;&gt;Roles : &lt;br&gt;&lt;/span&gt;&lt;span style=&quot;color:#282c33;font-size:20px;&quot;&gt;Purchasing: Generates and approves purchase orders (POs).&lt;br&gt;&lt;/span&gt;&lt;span style=&quot;color:#282c33;font-size:20px;&quot;&gt;Supplier: Receives POs and ships products.&lt;br&gt;&lt;/span&gt;&lt;span style=&quot;color:#282c33;font-size:20px;&quot;&gt;Warehouse: Scans products, updates item counts.&lt;br&gt;&lt;/span&gt;&lt;span style=&quot;color:#282c33;font-size:20px;&quot;&gt;Accounts Payable (A/P): Matches invoices to POs, authorizes payments, and manages payment alerts.&lt;br&gt;&lt;/span&gt;&lt;span style=&quot;color:#282c33;font-size:20px;&quot;&gt;Financial System: Authorise Paylment, Generate payment file, receive accruals .&lt;br&gt;&lt;/span&gt;&lt;span style=&quot;color:#282c33;font-size:20px;&quot;&gt;Bank: Processes electronic fund transfers (EFT) to suppliers as authorized by A/P.&lt;br&gt;&lt;/span&gt;&lt;span style=&quot;color:#282c33;font-size:20px;&quot;&gt;&lt;br&gt;&lt;/span&gt;&lt;span style=&quot;color:#282c33;font-size:20px;&quot;&gt;Assumptions :&lt;br&gt;&lt;/span&gt;&lt;span style=&quot;color:#282c33;font-size:20px;&quot;&gt;All transportation costs are associated with each PO.&lt;br&gt;&lt;/span&gt;&lt;span style=&quot;color:#282c33;font-size:20px;&quot;&gt;Any quantity discrepancies between the PO and received items are adjusted in the system to recalculate the payable amount.&lt;br&gt;&lt;/span&gt;&lt;span style=&quot;color:#282c33;font-size:20px;&quot;&gt;The system automatically notifies A/P if future payments are needed.&lt;br&gt;&lt;/span&gt;&lt;span style=&quot;color:#282c33;font-size:20px;&quot;&gt;A/P has the authority to close POs that will not be fully completed by the supplier.&lt;/span&gt;&lt;/span&gt;" id="GPdUt59Fllx6KTMSL-Bm-83">
          <mxCell style="text;whiteSpace=wrap;html=1;" vertex="1" parent="1">
            <mxGeometry x="760" y="-290" width="1120" height="690" as="geometry" />
          </mxCell>
        </UserObject>
      </root>
    </mxGraphModel>
  </diagram>
</mxfile>
